<svg xmlns="http://www.w3.org/2000/svg" xmlns:xlink="http://www.w3.org/1999/xlink" width="500" zoomAndPan="magnify" viewBox="0 0 375 374.999991" height="500" preserveAspectRatio="xMidYMid meet" version="1.0"><defs><clipPath id="6c84de4b19"><path d="M 57 54.503906 L 318 54.503906 L 318 320.753906 L 57 320.753906 Z M 57 54.503906 " clip-rule="nonzero"/></clipPath></defs><path fill="#4f46e5" d="M 324.882812 375.089844 L 50.207031 375.089844 C 22.476562 375.089844 0 352.613281 0 324.882812 L 0 50.207031 C 0 22.476562 22.476562 0 50.207031 0 L 324.882812 0 C 352.613281 0 375.089844 22.476562 375.089844 50.207031 L 375.089844 324.882812 C 375.089844 352.613281 352.613281 375.089844 324.882812 375.089844 Z M 324.882812 375.089844 " fill-opacity="1" fill-rule="nonzero"/><g clip-path="url(#6c84de4b19)"><path fill="#ffffff" d="M 140.429688 236.789062 L 234.574219 236.789062 C 234.476562 237.25 234.328125 237.695312 234.132812 238.121094 C 233.183594 240.078125 232.171875 241.976562 231.226562 243.871094 C 228.695312 248.859375 226.03125 254.042969 223.261719 259.097656 C 222.914062 259.53125 222.492188 259.875 222 260.128906 C 221.503906 260.378906 220.976562 260.519531 220.421875 260.546875 C 198.601562 260.675781 176.445312 260.675781 154.523438 260.546875 C 153.5625 260.554688 152.738281 260.21875 152.054688 259.539062 C 148.898438 253.535156 145.738281 247.339844 142.707031 241.355469 L 140.480469 237.046875 C 140.480469 236.984375 140.429688 236.847656 140.429688 236.789062 Z M 163.671875 284.714844 C 165.996094 287.671875 168.628906 290.328125 171.558594 292.683594 C 174.492188 295.039062 177.65625 297.035156 181.042969 298.667969 L 181.042969 313.863281 C 181.042969 314.289062 181.085938 314.710938 181.167969 315.128906 C 181.25 315.546875 181.375 315.953125 181.539062 316.347656 C 181.703125 316.742188 181.902344 317.117188 182.136719 317.46875 C 182.375 317.824219 182.644531 318.152344 182.945312 318.453125 C 183.246094 318.757812 183.574219 319.023438 183.929688 319.261719 C 184.285156 319.5 184.660156 319.699219 185.050781 319.863281 C 185.445312 320.023438 185.851562 320.148438 186.269531 320.230469 C 186.6875 320.316406 187.109375 320.355469 187.539062 320.355469 C 187.964844 320.355469 188.386719 320.316406 188.804688 320.230469 C 189.222656 320.148438 189.628906 320.023438 190.023438 319.863281 C 190.417969 319.699219 190.789062 319.5 191.144531 319.261719 C 191.5 319.023438 191.828125 318.757812 192.128906 318.453125 C 192.429688 318.152344 192.699219 317.824219 192.9375 317.46875 C 193.171875 317.117188 193.375 316.742188 193.535156 316.347656 C 193.699219 315.953125 193.824219 315.546875 193.90625 315.128906 C 193.988281 314.710938 194.03125 314.289062 194.03125 313.863281 L 194.03125 298.402344 L 194.15625 298.339844 C 196.679688 297.191406 199.0625 295.804688 201.308594 294.183594 C 208.019531 288.953125 213.542969 282.683594 217.886719 275.367188 L 156.925781 275.367188 C 158.914062 278.671875 161.164062 281.785156 163.671875 284.714844 Z M 134.140625 120.300781 L 133.734375 120.410156 C 133.90625 113.578125 135.28125 106.996094 137.851562 100.667969 L 137.925781 100.476562 C 138.535156 99.003906 139.242188 97.515625 140.039062 96.007812 C 140.320312 95.488281 140.585938 94.921875 140.886719 94.398438 C 141.4375 93.4375 142.085938 92.480469 142.726562 91.519531 C 143.210938 90.796875 143.65625 90.054688 144.175781 89.367188 C 144.28125 89.230469 144.347656 89.089844 144.457031 88.953125 C 146.507812 86.277344 148.808594 83.839844 151.359375 81.632812 C 150.335938 79.417969 149.101562 77.324219 147.667969 75.351562 C 146.011719 73.320312 144.167969 71.480469 142.128906 69.832031 C 140.46875 68.605469 138.714844 67.523438 136.871094 66.59375 C 136.507812 66.375 136.167969 66.121094 135.851562 65.835938 C 135.539062 65.550781 135.253906 65.238281 135 64.898438 C 134.746094 64.558594 134.523438 64.195312 134.339844 63.8125 C 134.15625 63.429688 134.011719 63.035156 133.902344 62.621094 C 133.792969 62.210938 133.726562 61.792969 133.699219 61.371094 C 133.671875 60.945312 133.6875 60.523438 133.742188 60.101562 C 133.796875 59.679688 133.894531 59.269531 134.027344 58.863281 C 134.164062 58.460938 134.335938 58.074219 134.542969 57.707031 C 134.976562 56.980469 135.523438 56.363281 136.191406 55.847656 C 136.855469 55.332031 137.59375 54.957031 138.402344 54.722656 C 139.25 54.511719 140.105469 54.464844 140.96875 54.578125 C 141.832031 54.691406 142.644531 54.957031 143.40625 55.378906 C 147.859375 57.617188 151.78125 60.558594 155.171875 64.210938 C 157.019531 66.199219 158.683594 68.332031 160.15625 70.609375 C 160.914062 71.792969 161.59375 73.019531 162.203125 74.289062 C 167.355469 71.703125 172.773438 69.90625 178.453125 68.902344 C 179.035156 68.796875 179.621094 68.703125 180.203125 68.621094 C 182.316406 68.285156 184.445312 68.082031 186.585938 68.011719 L 186.628906 68.011719 C 188.648438 68.003906 190.660156 68.117188 192.664062 68.355469 C 193.640625 68.453125 194.617188 68.605469 195.601562 68.761719 C 197.199219 69.019531 198.929688 69.351562 200.796875 69.800781 L 201.710938 70.089844 C 205.589844 71.113281 209.324219 72.523438 212.910156 74.324219 C 213.527344 73.039062 214.21875 71.800781 214.988281 70.601562 C 216.460938 68.328125 218.117188 66.199219 219.964844 64.214844 C 223.347656 60.566406 227.261719 57.621094 231.703125 55.378906 C 232.46875 54.957031 233.28125 54.691406 234.144531 54.578125 C 235.007812 54.464844 235.863281 54.511719 236.707031 54.722656 C 237.519531 54.957031 238.261719 55.328125 238.933594 55.84375 C 239.601562 56.359375 240.15625 56.980469 240.589844 57.707031 C 240.796875 58.074219 240.96875 58.460938 241.105469 58.863281 C 241.238281 59.269531 241.332031 59.679688 241.386719 60.101562 C 241.441406 60.523438 241.457031 60.945312 241.429688 61.371094 C 241.402344 61.792969 241.335938 62.210938 241.226562 62.621094 C 241.121094 63.035156 240.972656 63.429688 240.789062 63.8125 C 240.605469 64.195312 240.386719 64.558594 240.132812 64.898438 C 239.878906 65.238281 239.59375 65.550781 239.277344 65.835938 C 238.964844 66.121094 238.625 66.375 238.261719 66.59375 C 236.417969 67.523438 234.664062 68.605469 233.003906 69.832031 C 230.964844 71.484375 229.117188 73.332031 227.464844 75.375 C 226.039062 77.332031 224.816406 79.410156 223.792969 81.609375 C 226.15625 83.667969 228.304688 85.933594 230.238281 88.398438 C 230.386719 88.585938 230.542969 88.761719 230.6875 88.949219 C 230.832031 89.136719 230.898438 89.191406 231.003906 89.332031 C 232.644531 91.582031 234.101562 93.945312 235.378906 96.417969 C 236.65625 98.894531 237.734375 101.453125 238.613281 104.09375 C 239.496094 106.734375 240.167969 109.425781 240.636719 112.171875 C 241.101562 114.917969 241.355469 117.683594 241.394531 120.464844 C 239.875 119.921875 238.40625 119.371094 236.925781 118.824219 C 236.1875 118.550781 235.429688 118.277344 234.695312 118.003906 C 233.589844 117.585938 232.496094 117.191406 231.394531 116.78125 C 228.796875 115.8125 226.199219 114.828125 223.601562 113.898438 C 218.230469 111.96875 212.75 110.023438 207.222656 108.097656 C 201.695312 106.167969 196.113281 104.261719 190.554688 102.382812 C 189.691406 102.121094 188.804688 101.996094 187.902344 102.003906 C 186.585938 102.027344 185.300781 102.242188 184.046875 102.636719 C 174.996094 105.753906 165.933594 108.984375 156.980469 112.195312 L 148.035156 115.394531 L 143.234375 117.09375 L 134.449219 120.210938 Z M 223.730469 81.554688 L 223.851562 81.273438 C 223.8125 81.375 223.773438 81.457031 223.730469 81.554688 Z M 151.390625 81.601562 C 151.34375 81.492188 151.292969 81.394531 151.246094 81.285156 Z M 311.027344 174.304688 C 308.578125 170.765625 305.710938 167.601562 302.425781 164.816406 C 299.140625 162.03125 295.550781 159.722656 291.65625 157.886719 C 273.027344 148.328125 253.84375 140.074219 234.09375 133.121094 C 225.945312 130.003906 217.917969 127.175781 209.386719 124.085938 C 205.980469 122.820312 202.441406 121.617188 198.964844 120.292969 L 198.964844 120.480469 C 199.222656 121.40625 199.539062 122.3125 199.910156 123.199219 C 202.125 129.203125 204.398438 135.078125 206.609375 141.015625 C 212.800781 157.503906 219.183594 174.566406 225.882812 191.183594 C 229.964844 201.230469 234.871094 210.851562 240.605469 220.058594 C 241.582031 221.707031 242.675781 223.277344 243.882812 224.769531 C 245.09375 226.257812 246.402344 227.652344 247.816406 228.953125 C 249.226562 230.253906 250.726562 231.441406 252.3125 232.519531 C 253.898438 233.601562 255.554688 234.558594 257.28125 235.398438 C 259.007812 236.238281 260.785156 236.945312 262.613281 237.523438 C 264.441406 238.101562 266.304688 238.542969 268.199219 238.847656 C 270.09375 239.15625 272 239.324219 273.917969 239.351562 C 275.835938 239.378906 277.746094 239.265625 279.648438 239.015625 C 283.226562 238.609375 286.695312 237.753906 290.050781 236.445312 C 293.40625 235.136719 296.539062 233.421875 299.445312 231.292969 C 302.460938 229.121094 305.167969 226.613281 307.566406 223.773438 C 309.964844 220.933594 311.980469 217.847656 313.617188 214.507812 C 314.40625 212.933594 315.089844 211.3125 315.664062 209.648438 C 316.238281 207.980469 316.703125 206.285156 317.050781 204.558594 C 317.402344 202.832031 317.636719 201.089844 317.753906 199.332031 C 317.875 197.574219 317.878906 195.816406 317.765625 194.058594 C 317.652344 192.296875 317.421875 190.554688 317.078125 188.828125 C 316.734375 187.097656 316.277344 185.402344 315.707031 183.734375 C 315.140625 182.066406 314.464844 180.441406 313.679688 178.863281 C 312.894531 177.285156 312.011719 175.765625 311.027344 174.304688 Z M 168.421875 142.207031 C 171.203125 134.933594 173.984375 127.660156 176.824219 120.386719 C 176.777344 120.382812 176.734375 120.359375 176.699219 120.324219 C 176.570312 120.324219 176.445312 120.386719 176.320312 120.386719 C 175.933594 120.484375 175.554688 120.609375 175.183594 120.765625 C 168.863281 123.105469 162.484375 125.441406 156.164062 127.78125 C 143.085938 132.582031 129.5 137.574219 116.292969 142.757812 C 102.109375 147.890625 88.632812 154.46875 75.855469 162.488281 C 74.152344 163.601562 72.542969 164.835938 71.023438 166.191406 C 69.503906 167.546875 68.09375 169.007812 66.792969 170.574219 C 65.488281 172.140625 64.3125 173.792969 63.257812 175.535156 C 62.207031 177.277344 61.285156 179.089844 60.503906 180.96875 C 59.722656 182.847656 59.082031 184.773438 58.585938 186.75 C 58.09375 188.726562 57.746094 190.726562 57.550781 192.753906 C 57.355469 194.777344 57.3125 196.808594 57.417969 198.84375 C 57.527344 200.875 57.785156 202.890625 58.195312 204.882812 C 58.765625 207.644531 59.601562 210.324219 60.703125 212.921875 C 61.804688 215.519531 63.148438 217.984375 64.734375 220.316406 C 66.324219 222.648438 68.125 224.800781 70.140625 226.777344 C 72.152344 228.75 74.339844 230.511719 76.703125 232.054688 C 78.996094 233.589844 81.414062 234.890625 83.957031 235.957031 C 86.503906 237.019531 89.128906 237.824219 91.835938 238.371094 C 94.539062 238.917969 97.269531 239.199219 100.03125 239.207031 C 102.789062 239.21875 105.523438 238.960938 108.230469 238.433594 C 109.777344 238.125 111.296875 237.726562 112.792969 237.242188 C 114.292969 236.757812 115.757812 236.1875 117.1875 235.535156 C 118.621094 234.878906 120.011719 234.144531 121.355469 233.328125 C 122.703125 232.511719 124 231.621094 125.242188 230.65625 C 126.484375 229.6875 127.667969 228.65625 128.792969 227.550781 C 129.914062 226.449219 130.96875 225.285156 131.957031 224.058594 C 132.945312 222.832031 133.859375 221.554688 134.699219 220.222656 C 135.539062 218.890625 136.300781 217.515625 136.980469 216.09375 C 142.078125 206.722656 146.691406 197.121094 150.820312 187.28125 C 156.792969 172.347656 162.738281 156.992188 168.421875 142.207031 Z M 161.34375 199.136719 C 157.808594 206.277344 154.144531 213.730469 150.160156 222.066406 L 224.640625 222.066406 L 224.515625 221.757812 C 220.847656 214.046875 217.179688 206.398438 213.515625 198.898438 C 213.121094 198.488281 212.636719 198.277344 212.0625 198.265625 C 202.902344 198.203125 193.492188 198.203125 183.949219 198.203125 C 177.003906 198.203125 169.984375 198.203125 162.910156 198.265625 C 162.277344 198.355469 161.753906 198.648438 161.34375 199.136719 Z M 197.925781 160.40625 L 197.625 160.28125 L 197.625 160.023438 L 196.066406 155.542969 C 194.992188 152.425781 193.921875 149.34375 192.785156 146.191406 L 191.136719 141.707031 C 190.003906 138.417969 188.804688 135.199219 187.539062 131.597656 L 186.273438 135.261719 C 183.117188 144.046875 180.273438 152.007812 177.445312 160.03125 L 177.25 160.347656 C 177.03125 160.667969 176.839844 161.003906 176.679688 161.355469 C 174.789062 166.476562 172.832031 171.464844 170.871094 176.457031 L 168.34375 182.902344 C 168.214844 183.164062 168.132812 183.4375 168.09375 183.722656 L 207.054688 183.722656 L 204.84375 178.011719 C 202.539062 172.09375 200.265625 166.195312 197.925781 160.40625 Z M 197.925781 160.40625 " fill-opacity="1" fill-rule="nonzero"/></g></svg>